<?xml version="1.0" standalone="no"?>
<!DOCTYPE svg PUBLIC "-//W3C//DTD SVG 20010904//EN"
 "http://www.w3.org/TR/2001/REC-SVG-20010904/DTD/svg10.dtd">
<svg version="1.0" xmlns="http://www.w3.org/2000/svg"
 width="339.000000pt" height="75.000000pt" viewBox="0 0 339.000000 75.000000"
 preserveAspectRatio="xMidYMid meet">
<metadata>
Created by potrace 1.16, written by Peter Selinger 2001-2019
</metadata>
<g transform="translate(0.000000,75.000000) scale(0.100000,-0.100000)"
fill="#000000" stroke="none">
<path d="M134 520 c-110 -55 -110 -216 1 -270 52 -25 143 -27 192 -3 42 20 73
66 73 110 0 44 -21 53 -120 53 -79 0 -81 -1 -78 -22 3 -21 9 -23 71 -26 57 -2
67 -6 67 -21 0 -50 -107 -79 -169 -46 -45 23 -66 74 -50 122 22 69 111 93 191
52 35 -18 43 -19 55 -7 58 59 -134 107 -233 58z"/>
<path d="M577 518 c-49 -78 -137 -250 -137 -267 0 -36 44 -27 69 14 l20 35 95
0 94 0 22 -35 c15 -24 29 -35 46 -35 38 0 30 28 -50 172 -71 129 -74 133 -109
136 -28 3 -39 -2 -50 -20z"/>
<path d="M884 527 c-2 -7 -3 -76 -2 -152 3 -139 3 -140 27 -143 34 -5 41 12
41 113 l0 89 48 -47 c26 -26 55 -47 64 -47 9 0 36 23 60 50 l43 50 5 -102 5
-103 28 -3 27 -3 0 155 0 156 -25 0 c-19 0 -43 -18 -87 -65 l-60 -65 -60 65
c-42 46 -67 65 -84 65 -14 0 -27 -6 -30 -13z"/>
<path d="M1342 528 c-8 -8 -12 -54 -12 -143 0 -89 4 -135 12 -143 8 -8 55 -12
145 -12 115 0 135 2 140 16 12 32 -24 44 -134 44 l-103 0 0 35 0 35 89 0 c68
0 92 4 101 15 21 26 0 34 -95 37 l-90 3 -3 33 -3 32 103 0 c111 0 147 12 135
44 -5 14 -25 16 -140 16 -90 0 -137 -4 -145 -12z"/>
<path d="M1689 524 c-20 -25 13 -44 78 -44 l53 0 0 -109 c0 -126 4 -141 35
-141 31 0 35 15 35 141 l0 109 53 0 c60 0 80 10 75 36 -3 17 -16 19 -159 22
-134 2 -158 0 -170 -14z"/>
<path d="M2142 519 c-110 -56 -108 -215 3 -269 60 -29 169 -26 212 6 97 72 97
186 0 258 -43 31 -158 34 -215 5z m168 -44 c37 -19 50 -43 50 -90 0 -47 -13
-71 -50 -90 -97 -50 -211 27 -179 122 21 64 111 93 179 58z"/>
<path d="M2506 524 c-3 -9 -6 -50 -6 -93 0 -139 54 -201 173 -201 118 0 165
49 174 179 8 107 0 133 -35 129 l-27 -3 -5 -103 c-5 -98 -6 -105 -33 -128 -42
-36 -109 -34 -148 5 -27 28 -29 34 -29 114 0 101 -5 117 -35 117 -13 0 -26 -7
-29 -16z"/>
<path d="M2950 531 c-12 -8 -16 -38 -18 -132 -4 -146 0 -169 32 -169 28 0 36
16 36 71 l0 39 53 0 c52 0 53 -1 95 -55 31 -40 50 -55 68 -55 35 0 31 36 -8
77 l-32 33 32 30 c41 37 45 94 8 137 -24 27 -27 28 -138 31 -63 1 -120 -2
-128 -7z"/>
</g>
</svg>
